# xmcd CD database file
#
# Track frame offsets:
#	150
#	16800
#	31075
#	51537
#	72537
#	93225
#	108525
#	128125
#	151012
#	169137
#
# Disc length: 2467 seconds
#
# Revision: 1
# Processed by: cddbd v1.5.2PL0 Copyright (c) Steve Scherf et al.
# Submitted via: CDex 1.70beta2
#
DISCID=7c09a10a
DTITLE=Bauer, Garn and Dyke - Sturmfrei
DYEAR=1979
DGENRE=Blues
TTITLE0=Laubfrosch Blues
TTITLE1=Sturmfrei
TTITLE2=Lock n Loll
TTITLE3=Ich hau ab
TTITLE4=Sibirien Bär
TTITLE5=Guitar Man
TTITLE6=Da ha ick Bock druff
TTITLE7=Haltestellen Blues
TTITLE8=Billie
TTITLE9=Ich hab Lust, Baby
EXTD=YEAR: 1979
EXTT0=
EXTT1=
EXTT2=
EXTT3=
EXTT4=
EXTT5=
EXTT6=
EXTT7=
EXTT8=
EXTT9=
PLAYORDER=
